<mxfile host="app.diagrams.net" modified="2023-03-29T09:27:04.232Z" agent="Mozilla/5.0 (Windows NT 10.0; Win64; x64) AppleWebKit/537.36 (KHTML, like Gecko) Chrome/110.0.0.0 Safari/537.36 Edg/110.0.1587.57" version="21.1.1" etag="ANNXcVsfaKu6Bc_oBP9E" type="github">
  <diagram name="第 1 页" id="R-bAU9DSF-0okaVfDsCt">
    <mxGraphModel>
      <root>
        <mxCell id="0" />
        <mxCell id="1" parent="0" />
      </root>
    </mxGraphModel>
  </diagram>
</mxfile>
